<svg xmlns="http://www.w3.org/2000/svg">
  <defs>
    <symbol id="arrow">
      <path
        fill-rule="evenodd"
        clip-rule="evenodd"
        d="M4.29289 8.29289C4.68342 7.90237 5.31658 7.90237 5.70711 8.29289L13 15.5858L20.2929 8.29289C20.6834 7.90237 21.3166 7.90237 21.7071 8.29289C22.0976 8.68342 22.0976 9.31658 21.7071 9.70711L13.7071 17.7071C13.3166 18.0976 12.6834 18.0976 12.2929 17.7071L4.29289 9.70711C3.90237 9.31658 3.90237 8.68342 4.29289 8.29289Z"
        fill="#212429"
      />
    </symbol>

    <symbol id="help">
      <path
        fill-rule="evenodd"
        clip-rule="evenodd"
        d="M12 3C7.02944 3 3 7.02944 3 12C3 16.9706 7.02944 21 12 21C16.9706 21 21 16.9706 21 12C21 7.02944 16.9706 3 12 3ZM1 12C1 5.92487 5.92487 1 12 1C18.0751 1 23 5.92487 23 12C23 18.0751 18.0751 23 12 23C5.92487 23 1 18.0751 1 12Z"
        fill="#212429"
      />
      <path
        fill-rule="evenodd"
        clip-rule="evenodd"
        d="M12.2582 8.02431C11.7927 7.94446 11.314 8.03194 10.9068 8.27126C10.4996 8.51057 10.1902 8.88628 10.0335 9.33184C9.85018 9.85282 9.27926 10.1266 8.75827 9.94333C8.23728 9.76005 7.96351 9.18914 8.14678 8.66815C8.46025 7.77704 9.07898 7.02562 9.89339 6.54699C10.7078 6.06836 11.6653 5.8934 12.5964 6.0531C13.5274 6.2128 14.3719 6.69685 14.9802 7.41952C15.5884 8.14204 15.9214 9.05647 15.9201 10.0009C15.9197 11.5313 14.7851 12.5419 13.9748 13.082C13.5392 13.3725 13.1107 13.586 12.795 13.7263C12.6358 13.7971 12.5016 13.8508 12.405 13.8876C12.3566 13.906 12.3174 13.9203 12.2888 13.9305L12.2541 13.9427L12.243 13.9464L12.2391 13.9477L12.2376 13.9483C12.2373 13.9484 12.2363 13.9487 11.9201 13L12.2363 13.9487C11.7124 14.1233 11.1461 13.8402 10.9714 13.3162C10.7969 12.7926 11.0796 12.2267 11.6028 12.0517L11.6016 12.0521C11.6017 12.0521 11.6018 12.052 11.6028 12.0517L11.6188 12.0461C11.6342 12.0406 11.6594 12.0314 11.693 12.0186C11.7605 11.9929 11.8607 11.9529 11.9827 11.8987C12.2296 11.789 12.551 11.6275 12.8654 11.4179C13.555 10.9582 13.9201 10.4691 13.9201 9.99999L13.9201 9.9985C13.9208 9.52618 13.7543 9.06886 13.4502 8.70752C13.146 8.34618 12.7238 8.10416 12.2582 8.02431Z"
        fill="#212429"
      />
      <path
        fill-rule="evenodd"
        clip-rule="evenodd"
        d="M12 15C12.5523 15 13 15.4477 13 16V16.5C13 17.0523 12.5523 17.5 12 17.5C11.4477 17.5 11 17.0523 11 16.5V16C11 15.4477 11.4477 15 12 15Z"
        fill="#212429"
      />
    </symbol>

    <symbol id="close">
      <path
        fill-rule="evenodd"
        clip-rule="evenodd"
        d="M18.7071 5.29289C19.0976 5.68342 19.0976 6.31658 18.7071 6.70711L6.70711 18.7071C6.31658 19.0976 5.68342 19.0976 5.29289 18.7071C4.90237 18.3166 4.90237 17.6834 5.29289 17.2929L17.2929 5.29289C17.6834 4.90237 18.3166 4.90237 18.7071 5.29289Z"
        fill="#212429"
      />
      <path
        fill-rule="evenodd"
        clip-rule="evenodd"
        d="M5.29289 5.29289C5.68342 4.90237 6.31658 4.90237 6.70711 5.29289L18.7071 17.2929C19.0976 17.6834 19.0976 18.3166 18.7071 18.7071C18.3166 19.0976 17.6834 19.0976 17.2929 18.7071L5.29289 6.70711C4.90237 6.31658 4.90237 5.68342 5.29289 5.29289Z"
        fill="#212429"
      />
    </symbol>

    <symbol id="check" fill="none">
        <path
          d="M1.5 7.5L5 11L13 2"
          stroke="white"
          stroke-width="3"
          stroke-linecap="round"
          stroke-linejoin="round"
        />
    </symbol>

    <symbol id="success" fill="none">
      <path
        d="M22 11.08V12C21.9988 14.1564 21.3005 16.2547 20.0093 17.9818C18.7182 19.709 16.9033 20.9725 14.8354 21.5839C12.7674 22.1953 10.5573 22.1219 8.53447 21.3746C6.51168 20.6273 4.78465 19.2461 3.61096 17.4371C2.43727 15.628 1.87979 13.4881 2.02168 11.3363C2.16356 9.18457 2.99721 7.13633 4.39828 5.49707C5.79935 3.85782 7.69279 2.71538 9.79619 2.24015C11.8996 1.76491 14.1003 1.98234 16.07 2.86"
        stroke="#374FC7"
        stroke-width="2"
        stroke-linecap="round"
        stroke-linejoin="round"
      />
      <path
        d="M22 4L12 14.01L9 11.01"
        stroke="#374FC7"
        stroke-width="2"
        stroke-linecap="round"
        stroke-linejoin="round"
      />
    </symbol>

    <symbol id="error" fill="none">
      <path
        d="M10.29 3.86001L1.82 18C1.64537 18.3024 1.55296 18.6453 1.55199 18.9945C1.55101 19.3437 1.64149 19.6871 1.81442 19.9905C1.98736 20.2939 2.23672 20.5468 2.53771 20.7239C2.83869 20.901 3.1808 20.9962 3.53 21H20.47C20.8192 20.9962 21.1613 20.901 21.4623 20.7239C21.7633 20.5468 22.0126 20.2939 22.1856 19.9905C22.3585 19.6871 22.449 19.3437 22.448 18.9945C22.447 18.6453 22.3546 18.3024 22.18 18L13.71 3.86001C13.5317 3.56611 13.2807 3.32313 12.9812 3.15449C12.6817 2.98585 12.3437 2.89726 12 2.89726C11.6563 2.89726 11.3183 2.98585 11.0188 3.15449C10.7193 3.32313 10.4683 3.56611 10.29 3.86001V3.86001Z"
        stroke="#F03D3E"
        stroke-width="2"
        stroke-linecap="round"
        stroke-linejoin="round"
      />
      <path
        d="M12 9V13"
        stroke="#F03D3E"
        stroke-width="2"
        stroke-linecap="round"
        stroke-linejoin="round"
      />
      <path
        d="M12 16V16.5"
        stroke="#F03D3E"
        stroke-width="2"
        stroke-linecap="round"
        stroke-linejoin="round"
      />
    </symbol>

    <symbol id="menu">
      <path
        fill-rule="evenodd"
        clip-rule="evenodd"
        d="M2 12C2 11.4477 2.44772 11 3 11H21C21.5523 11 22 11.4477 22 12C22 12.5523 21.5523 13 21 13H3C2.44772 13 2 12.5523 2 12Z"
        fill="#212429"
      />
      <path
        fill-rule="evenodd"
        clip-rule="evenodd"
        d="M2 6C2 5.44772 2.44772 5 3 5H21C21.5523 5 22 5.44772 22 6C22 6.55228 21.5523 7 21 7H3C2.44772 7 2 6.55228 2 6Z"
        fill="#212429"
      />
      <path
        fill-rule="evenodd"
        clip-rule="evenodd"
        d="M2 18C2 17.4477 2.44772 17 3 17H21C21.5523 17 22 17.4477 22 18C22 18.5523 21.5523 19 21 19H3C2.44772 19 2 18.5523 2 18Z"
        fill="#212429"
      />
    </symbol>


    <symbol id="sun">
      <g clip-path="url(#clip0_16769_229)">
        <path
          d="M12 17C14.7614 17 17 14.7614 17 12C17 9.23858 14.7614 7 12 7C9.23858 7 7 9.23858 7 12C7 14.7614 9.23858 17 12 17Z"
          stroke="#495057"
          stroke-width="2"
          stroke-linecap="round"
          stroke-linejoin="round"
        />
        <path
          d="M12 1V3"
          stroke="#495057"
          stroke-width="2"
          stroke-linecap="round"
          stroke-linejoin="round"
        />
        <path
          d="M12 21V23"
          stroke="#495057"
          stroke-width="2"
          stroke-linecap="round"
          stroke-linejoin="round"
        />
        <path
          d="M4.22021 4.21997L5.64021 5.63997"
          stroke="#495057"
          stroke-width="2"
          stroke-linecap="round"
          stroke-linejoin="round"
        />
        <path
          d="M18.3599 18.36L19.7799 19.78"
          stroke="#495057"
          stroke-width="2"
          stroke-linecap="round"
          stroke-linejoin="round"
        />
        <path
          d="M1 12H3"
          stroke="#495057"
          stroke-width="2"
          stroke-linecap="round"
          stroke-linejoin="round"
        />
        <path
          d="M21 12H23"
          stroke="#495057"
          stroke-width="2"
          stroke-linecap="round"
          stroke-linejoin="round"
        />
        <path
          d="M4.22021 19.78L5.64021 18.36"
          stroke="#495057"
          stroke-width="2"
          stroke-linecap="round"
          stroke-linejoin="round"
        />
        <path
          d="M18.3599 5.63997L19.7799 4.21997"
          stroke="#495057"
          stroke-width="2"
          stroke-linecap="round"
          stroke-linejoin="round"
        />
      </g>
      <defs>
        <clipPath id="clip0_16769_229">
          <rect width="24" height="24" fill="white" />
        </clipPath>
      </defs>
    </symbol>

    <symbol id="moon">
      <path
        fill-rule="evenodd"
        clip-rule="evenodd"
        d="M12.0811 2.50904C12.2746 2.85242 12.2484 3.27745 12.0141 3.59442C11.1598 4.75008 10.7488 6.17395 10.8557 7.60706C10.9625 9.04018 11.5802 10.3873 12.5964 11.4035C13.6126 12.4197 14.9597 13.0374 16.3929 13.1443C17.826 13.2511 19.2498 12.8401 20.4055 11.9859L20.9999 12.79L21.9957 12.882C21.8209 14.7734 21.1111 16.5758 19.9493 18.0785C18.7875 19.5811 17.2218 20.7218 15.4353 21.3671C13.6489 22.0124 11.7156 22.1355 9.86177 21.7221C8.0079 21.3088 6.3101 20.376 4.96702 19.0329C3.62394 17.6898 2.69115 15.992 2.27778 14.1381C1.86441 12.2843 1.98757 10.351 2.63284 8.56459C3.27811 6.77816 4.4188 5.21244 5.92145 4.05065C7.4241 2.88886 9.22654 2.17904 11.1179 2.00426C11.5104 1.96799 11.8876 2.16566 12.0811 2.50904ZM19.5608 14.6836C18.5077 15.0646 17.3781 15.2233 16.2441 15.1387C14.3333 14.9962 12.5371 14.1726 11.1822 12.8177C9.82729 11.4628 9.0037 9.66661 8.8612 7.7558C8.77664 6.62183 8.93528 5.4922 9.31629 4.43908C8.53868 4.72043 7.8055 5.12204 7.14478 5.63289C5.94266 6.56232 5.0301 7.81489 4.51389 9.24404C3.99767 10.6732 3.89914 12.2198 4.22984 13.7029C4.56054 15.186 5.30677 16.5442 6.38123 17.6187C7.45569 18.6931 8.81394 19.4394 10.297 19.7701C11.7801 20.1008 13.3267 20.0022 14.7559 19.486C16.185 18.9698 17.4376 18.0573 18.367 16.8551C18.8779 16.1944 19.2795 15.4612 19.5608 14.6836Z"
        fill="#212429"
      />
    </symbol>


  </defs>
</svg>